<svg width="64" height="64" viewBox="0 0 64 64" fill="none" xmlns="http://www.w3.org/2000/svg">
<path d="M54 49.14L42.706 37.844C44.693 34.8997 45.7532 31.428 45.75 27.876C45.75 18.02 37.734 10 27.876 10C18.02 10 10 18.02 10 27.876C10 37.734 18.02 45.752 27.876 45.752C31.4282 45.7562 34.9002 44.6959 37.844 42.708L49.136 54L54 49.14ZM27.876 40.25C24.5947 40.2468 21.4486 38.9419 19.1284 36.6216C16.8081 34.3014 15.5032 31.1553 15.5 27.874C15.5037 24.5928 16.8088 21.4471 19.1289 19.1269C21.4491 16.8068 24.5948 15.5017 27.876 15.498C31.1572 15.5017 34.3029 16.8068 36.6231 19.1269C38.9432 21.4471 40.2483 24.5928 40.252 27.874C40.2483 31.1552 38.9432 34.3009 36.6231 36.6211C34.3029 38.9412 31.1572 40.2463 27.876 40.25Z" fill="#999999"/>
</svg>
